#!OML:ASF X:\für Bonn\!DataBase\2005_08_10_Bjorn_Final\c3d\bjorn.ASF
:FULLY-SPECIFIED
:DEGREES
186
root 23.8614 16.3921 -0.623767 29.4312 -66.3754 -344.012
lowerback 61.375 -2.3879 8.07762
upperback 17.1714 -0.40866 0.532306
thorax -1.83949 -0.388442 -2.68905
lowerneck -1.71152 -1.44322 7.10984
upperneck -12.9487 -2.4057 -3.71613
head -4.13142 -1.49469 -2.44292
rclavicle -3.02153e-014 6.59965e-014
rhumerus 77.7023 6.42654 -57.059
rradius 21.7039
rwrist 9.82129
rhand -36.7819 27.8132
rfingers 7.12502
rthumb -9.86426 -1.93568
lclavicle -3.02153e-014 6.59965e-014
lhumerus 65.5557 -3.26031 105.457
lradius 13.7006
lwrist -57.6122
lhand -59.3013 0.322145
lfingers 7.12502
lthumb -31.4865 27.6297
rfemur -94.9806 -18.9019 20.2711
rtibia 74.4899
rfoot -18.839 8.97035
rtoes -9.01351
lfemur -93.5268 5.79088 -32.491
ltibia 71.8459
lfoot -14.0377 -9.19522
ltoes -4.0989
187
root 23.8591 16.3849 -0.622839 29.3828 -66.299 -343.953
lowerback 61.3573 -2.3508 8.00042
upperback 17.2137 -0.412664 0.546883
thorax -1.79615 -0.392421 -2.64004
lowerneck -1.84341 -1.42007 7.0299
upperneck -12.862 -2.38408 -3.72332
head -4.0712 -1.47921 -2.43062
rclavicle -1.46306e-013 2.78299e-014
rhumerus 77.7276 6.47138 -57.4215
rradius 21.6122
rwrist 10.5751
rhand -37.4736 28.3534
rfingers 7.12502
rthumb -10.5316 -1.36275
lclavicle -1.46306e-013 2.78299e-014
lhumerus 65.5506 -3.15686 105.606
lradius 13.683
lwrist -57.7947
lhand -59.3028 0.655107
lfingers 7.12502
lthumb -31.4878 27.9624
rfemur -95.0117 -18.9527 20.2441
rtibia 74.5765
rfoot -18.9282 8.90682
rtoes -9.22111
lfemur -93.5536 5.741 -32.5171
ltibia 71.9107
lfoot -14.0724 -9.2176
ltoes -4.19101
188
root 23.8568 16.3807 -0.622195 29.3593 -66.1997 -343.912
lowerback 61.3355 -2.3385 7.96312
upperback 17.2342 -0.41862 0.547723
thorax -1.77545 -0.394232 -2.62197
lowerneck -1.84654 -1.40755 6.90492
upperneck -12.8667 -2.362 -3.66195
head -4.0661 -1.46421 -2.38675
rclavicle -8.42847e-014 -7.95139e-016
rhumerus 77.7276 6.49432 -57.8814
rradius 21.467
rwrist 11.435
rhand -38.1163 28.8823
rfingers 7.12502
rthumb -11.1515 -0.801376
lclavicle -8.42847e-014 -7.95139e-016
lhumerus 65.489 -3.07825 105.717
lradius 13.675
lwrist -58.0423
lhand -59.2414 1.13969
lfingers 7.12502
lthumb -31.4294 28.4584
rfemur -95.0308 -19.0091 20.2267
rtibia 74.6456
rfoot -19.0026 8.83159
rtoes -9.3289
lfemur -93.5777 5.67354 -32.5211
ltibia 71.954
lfoot -14.0442 -9.27229
ltoes -4.052
189
root 23.8534 16.3779 -0.621019 29.3724 -66.1055 -343.919
lowerback 61.3366 -2.30603 7.89948
upperback 17.2567 -0.41361 0.585893
thorax -1.75281 -0.397528 -2.55536
lowerneck -1.92781 -1.38831 6.79599
upperneck -12.7863 -2.34274 -3.67674
head -4.01769 -1.44765 -2.37171
rclavicle -1.59028e-014 7.31528e-014
rhumerus 77.7451 6.5604 -58.226
rradius 21.3803
rwrist 12.1621
rhand -38.7255 29.3581
rfingers 7.12502
rthumb -11.739 -0.292993
lclavicle -1.59028e-014 7.31528e-014
lhumerus 65.4353 -2.9448 105.952
lradius 13.6835
lwrist -58.2635
lhand -59.1476 1.41791
lfingers 7.12502
lthumb -31.34 28.754
rfemur -95.0199 -19.0527 20.2135
rtibia 74.6992
rfoot -19.0858 8.80513
rtoes -9.40604
lfemur -93.5846 5.62381 -32.5076
ltibia 71.9838
lfoot -14.0515 -9.29896
ltoes -4.02542
190
root 23.8509 16.3748 -0.620374 29.2833 -65.991 -343.809
lowerback 61.3314 -2.30971 7.86148
upperback 17.2743 -0.433705 0.588453
thorax -1.73601 -0.405524 -2.52908
lowerneck -1.96144 -1.3761 6.75976
upperneck -12.7639 -2.33024 -3.69631
head -4.00188 -1.4386 -2.37205
rclavicle -8.90555e-014 3.65764e-014
rhumerus 77.7542 6.59054 -58.6232
rradius 21.2613
rwrist 12.9341
rhand -39.2955 29.7982
rfingers 7.12502
rthumb -12.2886 0.179288
lclavicle -8.90555e-014 3.65764e-014
lhumerus 65.3956 -2.9229 105.906
lradius 13.6512
lwrist -58.2748
lhand -58.9976 1.62236
lfingers 7.12502
lthumb -31.197 28.9861
rfemur -95.0261 -19.1369 20.1746
rtibia 74.7498
rfoot -19.1516 8.72368
rtoes -9.4258
lfemur -93.5861 5.53374 -32.5355
ltibia 72
lfoot -14.049 -9.34759
ltoes -4.00968
191
root 23.8472 16.3741 -0.619387 29.275 -65.9032 -343.785
lowerback 61.314 -2.28295 7.8167
upperback 17.3168 -0.431625 0.601659
thorax -1.69014 -0.404945 -2.49757
lowerneck -2.08711 -1.36099 6.65136
upperneck -12.6724 -2.31511 -3.67202
head -3.9406 -1.42616 -2.34331
rclavicle -7.4743e-014 -1.35174e-014
rhumerus 77.7719 6.59616 -59.0293
rradius 21.1279
rwrist 13.7342
rhand -39.8733 30.3722
rfingers 7.12502
rthumb -12.8456 0.787434
lclavicle -7.4743e-014 -1.35174e-014
lhumerus 65.3657 -2.86936 106.024
lradius 13.6286
lwrist -58.4235
lhand -58.8237 1.87297
lfingers 7.12502
lthumb -31.0314 29.2685
rfemur -95.0114 -19.1726 20.1497
rtibia 74.7784
rfoot -19.2178 8.63684
rtoes -9.62584
lfemur -93.5725 5.47119 -32.5241
ltibia 71.9962
lfoot -14.0105 -9.39223
ltoes -3.7448
